<svg width="471" height="104" viewBox="0 0 471 104" fill="none" xmlns="http://www.w3.org/2000/svg">
<rect width="471" height="104" fill="white"/>
<rect y="24" width="57" height="56" rx="28" fill="#EBF3FF"/>
<line x1="16" y1="63.5" x2="41" y2="63.5" stroke="#1F1F1F"/>
<path d="M16.5 40.5H28.5V63.5H16.5V40.5Z" stroke="#1F1F1F"/>
<path d="M28.5 45.5H40.5V63.5H28.5V45.5Z" stroke="#1F1F1F"/>
<rect x="19.5" y="44.5" width="2" height="2" stroke="#1F1F1F"/>
<rect x="19.5" y="48.5" width="2" height="2" stroke="#1F1F1F"/>
<rect x="19.5" y="52.5" width="2" height="2" stroke="#1F1F1F"/>
<rect x="32.5" y="57.5" width="4" height="6" stroke="#1F1F1F"/>
<rect x="20.5" y="57.5" width="4" height="6" stroke="#1F1F1F"/>
<rect x="31.5" y="52.5" width="2" height="2" stroke="#1F1F1F"/>
<rect x="31.5" y="48.5" width="2" height="2" stroke="#1F1F1F"/>
<rect x="23.5" y="44.5" width="2" height="2" stroke="#1F1F1F"/>
<rect x="23.5" y="48.5" width="2" height="2" stroke="#1F1F1F"/>
<rect x="23.5" y="52.5" width="2" height="2" stroke="#1F1F1F"/>
<rect x="35.5" y="52.5" width="2" height="2" stroke="#1F1F1F"/>
<rect x="35.5" y="48.5" width="2" height="2" stroke="#1F1F1F"/>
<line x1="63" y1="51.5" x2="133" y2="51.5" stroke="#C3C5C6"/>
<rect x="139" y="24" width="56" height="56" rx="28" fill="#F5F7F8"/>
<path d="M168.361 52.6953L167.654 53.4024L169.882 55.6297L170.589 54.9226L168.361 52.6953Z" fill="#636363"/>
<path d="M174.533 62.5076C174.173 62.5076 173.843 62.3776 173.593 62.1276L168.493 57.0276C168.293 56.8276 168.293 56.5176 168.493 56.3176L171.283 53.5276C171.483 53.3276 171.793 53.3276 171.993 53.5276L177.093 58.6276C177.633 59.1676 177.593 60.0776 177.013 60.6576L175.613 62.0576C175.343 62.3276 174.983 62.4976 174.613 62.5176C174.583 62.5076 174.563 62.5076 174.533 62.5076ZM169.543 56.6676L174.292 61.4176C174.382 61.5076 174.492 61.5076 174.552 61.5076C174.672 61.4976 174.803 61.4376 174.903 61.3376L176.302 59.9376C176.492 59.7476 176.522 59.4676 176.382 59.3276L171.633 54.5776L169.543 56.6676Z" fill="#636363"/>
<path d="M158.482 62.4876C157.962 62.4876 157.473 62.2776 157.093 61.8976C156.303 61.1076 156.303 59.9076 157.093 59.1176L168.722 47.4776C168.462 46.6976 167.983 44.7076 169.293 43.4076L170.203 42.4976C171.653 41.0576 173.613 41.5776 173.693 41.5976C173.773 41.6176 173.853 41.6676 173.913 41.7276L174.472 42.2876C174.562 42.3776 174.622 42.5076 174.622 42.6376C174.622 42.7676 174.572 42.8976 174.472 42.9876L172.792 44.6676L173.122 45.8576L174.312 46.1876L175.993 44.5076C176.193 44.3076 176.502 44.3076 176.702 44.5076L177.263 45.0676C177.323 45.1276 177.362 45.2076 177.392 45.2876C177.412 45.3676 177.943 47.3276 176.493 48.7776L175.583 49.6876C174.273 50.9976 172.283 50.5176 171.513 50.2576L159.873 61.8976C159.493 62.2776 158.992 62.4876 158.482 62.4876ZM172.733 42.4876C172.213 42.4876 171.493 42.6176 170.903 43.2076L169.993 44.1076C168.853 45.2476 169.753 47.3876 169.763 47.4076C169.843 47.5976 169.803 47.8176 169.653 47.9576L157.792 59.8176C157.392 60.2176 157.392 60.7876 157.792 61.1876C158.182 61.5776 158.773 61.5776 159.163 61.1876L171.023 49.3276C171.163 49.1876 171.383 49.1376 171.573 49.2176C171.593 49.2276 173.732 50.1176 174.872 48.9876L175.783 48.0776C176.653 47.2076 176.522 46.0576 176.452 45.6776L176.353 45.5776L174.823 47.1076C174.693 47.2376 174.513 47.2876 174.333 47.2376L172.583 46.7476C172.413 46.6976 172.283 46.5676 172.233 46.3976L171.743 44.6476C171.693 44.4776 171.743 44.2876 171.873 44.1576L173.403 42.6276L173.302 42.5276C173.182 42.5176 172.983 42.4876 172.733 42.4876Z" fill="#636363"/>
<path d="M159.85 44.1885L159.143 44.8956L165.578 51.3302L166.285 50.6231L159.85 44.1885Z" fill="#636363"/>
<path d="M160.512 44.9276L160.143 43.5276L157.823 42.0376L157.723 42.1376H157.713L157.093 42.7576L157.103 42.7676L156.993 42.8676L158.483 45.1876L159.883 45.5476L160.512 44.9276Z" fill="#636363"/>
<line x1="201" y1="51.5" x2="271" y2="51.5" stroke="#C3C5C6"/>
<rect x="277" y="24" width="56" height="56" rx="28" fill="#F5F7F8"/>
<path fill-rule="evenodd" clip-rule="evenodd" d="M311.692 43.0149L298.086 56.5918L296.037 60.9655L300.419 58.9239L314.062 45.311C314.334 44.9856 314.483 44.5747 314.483 44.15C314.483 43.7307 314.338 43.3247 314.072 43.0012C313.743 42.7201 313.324 42.5652 312.89 42.5652C312.449 42.5652 312.024 42.7251 311.692 43.0149ZM314.762 42.2761C314.246 41.8181 313.58 41.5652 312.89 41.5652C312.2 41.5652 311.534 41.8181 311.018 42.2761L311.007 42.2858L297.255 56.0082L293.963 63.0346L301.001 59.7561L314.797 45.9899L314.81 45.9747C315.245 45.466 315.483 44.819 315.483 44.15C315.483 43.4811 315.245 42.8341 314.81 42.3253L314.762 42.2761Z" fill="#636363"/>
<path fill-rule="evenodd" clip-rule="evenodd" d="M312.918 47.1547L309.858 44.1147L310.563 43.4053L313.623 46.4453L312.918 47.1547Z" fill="#636363"/>
<path fill-rule="evenodd" clip-rule="evenodd" d="M300.357 59.6936L297.317 56.6536L298.024 55.9465L301.064 58.9865L300.357 59.6936Z" fill="#636363"/>
<line x1="339" y1="51.5" x2="409" y2="51.5" stroke="#C3C5C6"/>
<rect x="415" y="24" width="56" height="56" rx="28" fill="#F5F7F8"/>
<path fill-rule="evenodd" clip-rule="evenodd" d="M431.5 45.5H454.5V61.5H431.5V45.5ZM432.5 46.5V60.5H453.5V46.5H432.5Z" fill="#636363"/>
<path fill-rule="evenodd" clip-rule="evenodd" d="M436.39 61V46H437.39V61H436.39Z" fill="#636363"/>
<path fill-rule="evenodd" clip-rule="evenodd" d="M448.61 61V46H449.61V61H448.61Z" fill="#636363"/>
<path fill-rule="evenodd" clip-rule="evenodd" d="M440.56 43.0316C440.035 43.4656 439.5 44.3099 439.5 46H438.5C438.5 44.0801 439.12 42.9244 439.923 42.2609C440.705 41.6143 441.582 41.5 442 41.5H444C444.418 41.5 445.295 41.6143 446.077 42.2609C446.88 42.9244 447.5 44.0801 447.5 46H446.5C446.5 44.3099 445.965 43.4656 445.44 43.0316C444.895 42.5807 444.272 42.5 444 42.5H442C441.728 42.5 441.105 42.5807 440.56 43.0316Z" fill="#636363"/>
</svg>
